# xmcd
#
# Track frame offsets: 
#        183
#        12193
#        29838
#        50833
#        63775
#        81205
#        102453
#        120613
#        134558
#        156925
#        171825
#        187810
#        204973
#        217860
#
# Disc length: 3164 seconds
#
# Revision: 1
# Processed by: cddbd v1.5.2PL0 Copyright (c) Steve Scherf et al.
# Submitted via: ExactAudioCopy v1.1
#
DISCID=c10c5a0e
DTITLE=Various Artist - New Orleans
DYEAR=1993
DGENRE=Blues
TTITLE0=Marva Wright - Heartbreakin' Woman
TTITLE1=House Levelers - No Definitions
TTITLE2=Al Broussard - No Money
TTITLE3=Luther Kent &Trick Bag - Renegade Woman
TTITLE4=Lenny Mc Daniel - Stumble and Fall
TTITLE5=The Radiators - Nail your Heart to Mine
TTITLE6=John Thomas Griffith - Crossfire
TTITLE7=John Magnie - C'est La Vie
TTITLE8=Treme Brass Band - I Got a Big Fat Woman
TTITLE9=Tommy Ridgley - How Long?
TTITLE10=Dejan's Olympia Brass Band - New Second Line
TTITLE11=Sonny Landreth - The Center
TTITLE12=John Du Bois - Jolle Blonde
TTITLE13=Wayne Toups and Zydecajun - Lacassine Special
EXTD=
EXTT0=
EXTT1=
EXTT2=
EXTT3=
EXTT4=
EXTT5=
EXTT6=
EXTT7=
EXTT8=
EXTT9=
EXTT10=
EXTT11=
EXTT12=
EXTT13=
PLAYORDER=
